<svg width="1328" height="854" viewBox="0 0 1328 854" fill="none" xmlns="http://www.w3.org/2000/svg">
<g filter="url(#filter0_d)">
<path d="M1305.86 7.94336H22.1438C16.0842 7.94336 11.1719 12.8556 11.1719 18.9152V828.092C11.1719 834.152 16.0842 839.064 22.1438 839.064H1305.86C1311.91 839.064 1316.83 834.152 1316.83 828.092V18.9152C1316.83 12.8556 1311.91 7.94336 1305.86 7.94336Z" fill="white"/>
</g>
<path d="M11.1719 18.9152C11.1719 12.8556 16.0843 7.94336 22.1438 7.94336H1305.86C1311.91 7.94336 1316.83 12.8556 1316.83 18.9152V106.69H11.1719V18.9152Z" fill="#1976D2"/>
<path d="M1251 161.551H419.875C413.816 161.551 408.904 166.463 408.904 172.523V773.234C408.904 779.293 413.816 784.205 419.875 784.205H1251C1257.06 784.205 1261.97 779.293 1261.97 773.234V172.523C1261.97 166.463 1257.06 161.551 1251 161.551Z" fill="#F4F4F7"/>
<path d="M351.3 161.551H77.0031C70.9435 161.551 66.0312 166.463 66.0312 172.523V773.234C66.0312 779.293 70.9435 784.205 77.0031 784.205H351.3C357.36 784.205 362.272 779.293 362.272 773.234V172.523C362.272 166.463 357.36 161.551 351.3 161.551Z" fill="#F0F0FD"/>
<path d="M269.011 328.871H137.348C135.834 328.871 134.605 330.099 134.605 331.614V348.072C134.605 349.587 135.834 350.815 137.348 350.815H269.011C270.526 350.815 271.754 349.587 271.754 348.072V331.614C271.754 330.099 270.526 328.871 269.011 328.871Z" fill="#C3C3D8"/>
<path d="M326.613 383.73H137.348C135.834 383.73 134.605 384.959 134.605 386.473V402.931C134.605 404.446 135.834 405.674 137.348 405.674H326.613C328.128 405.674 329.356 404.446 329.356 402.931V386.473C329.356 384.959 328.128 383.73 326.613 383.73Z" fill="#C3C3D8"/>
<path d="M310.156 438.59H137.348C135.834 438.59 134.605 439.818 134.605 441.333V457.791C134.605 459.306 135.834 460.534 137.348 460.534H310.156C311.671 460.534 312.899 459.306 312.899 457.791V441.333C312.899 439.818 311.671 438.59 310.156 438.59Z" fill="#1976D2"/>
<path d="M285.469 493.449H137.348C135.834 493.449 134.605 494.677 134.605 496.192V512.65C134.605 514.165 135.834 515.393 137.348 515.393H285.469C286.984 515.393 288.212 514.165 288.212 512.65V496.192C288.212 494.677 286.984 493.449 285.469 493.449Z" fill="#C3C3D8"/>
<path d="M326.613 548.309H137.348C135.834 548.309 134.605 549.537 134.605 551.052V567.509C134.605 569.024 135.834 570.252 137.348 570.252H326.613C328.128 570.252 329.356 569.024 329.356 567.509V551.052C329.356 549.537 328.128 548.309 326.613 548.309Z" fill="#C3C3D8"/>
<path d="M118.148 328.871H101.69C100.175 328.871 98.9473 330.099 98.9473 331.614V348.072C98.9473 349.587 100.175 350.815 101.69 350.815H118.148C119.662 350.815 120.891 349.587 120.891 348.072V331.614C120.891 330.099 119.662 328.871 118.148 328.871Z" fill="#9696B1"/>
<path d="M118.148 383.73H101.69C100.175 383.73 98.9473 384.959 98.9473 386.473V402.931C98.9473 404.446 100.175 405.674 101.69 405.674H118.148C119.662 405.674 120.891 404.446 120.891 402.931V386.473C120.891 384.959 119.662 383.73 118.148 383.73Z" fill="#9696B1"/>
<path d="M118.148 438.59H101.69C100.175 438.59 98.9473 439.818 98.9473 441.333V457.791C98.9473 459.306 100.175 460.534 101.69 460.534H118.148C119.662 460.534 120.891 459.306 120.891 457.791V441.333C120.891 439.818 119.662 438.59 118.148 438.59Z" fill="#1976D2"/>
<path d="M118.148 493.449H101.69C100.175 493.449 98.9473 494.677 98.9473 496.192V512.65C98.9473 514.165 100.175 515.393 101.69 515.393H118.148C119.662 515.393 120.891 514.165 120.891 512.65V496.192C120.891 494.677 119.662 493.449 118.148 493.449Z" fill="#9696B1"/>
<path d="M118.148 548.309H101.69C100.175 548.309 98.9473 549.537 98.9473 551.052V567.509C98.9473 569.024 100.175 570.252 101.69 570.252H118.148C119.662 570.252 120.891 569.024 120.891 567.509V551.052C120.891 549.537 119.662 548.309 118.148 548.309Z" fill="#9696B1"/>
<path d="M324.5 202.695H105.062C102.032 202.695 99.5762 205.151 99.5762 208.181V276.756C99.5762 279.785 102.032 282.242 105.062 282.242H324.5C327.529 282.242 329.986 279.785 329.986 276.756V208.181C329.986 205.151 327.529 202.695 324.5 202.695Z" fill="#1976D2"/>
<path d="M1212.59 205.438H957.499C952.954 205.438 949.27 209.121 949.27 213.665V734.831C949.27 739.376 952.954 743.06 957.499 743.06H1212.59C1217.14 743.06 1220.82 739.376 1220.82 734.831V213.665C1220.82 209.121 1217.14 205.438 1212.59 205.438Z" fill="#B5C4FB"/>
<g filter="url(#filter1_d)">
<path d="M905.383 205.438H455.535C452.505 205.438 450.049 207.894 450.049 210.923V345.329C450.049 348.359 452.505 350.814 455.535 350.814H905.383C908.412 350.814 910.869 348.359 910.869 345.329V210.923C910.869 207.894 908.412 205.438 905.383 205.438Z" fill="white"/>
</g>
<path d="M578.969 221.896H485.708C481.163 221.896 477.479 225.581 477.479 230.125V323.386C477.479 327.931 481.163 331.615 485.708 331.615H578.969C583.514 331.615 587.198 327.931 587.198 323.386V230.125C587.198 225.581 583.514 221.896 578.969 221.896Z" fill="#D2EFFC"/>
<path d="M877.951 230.125H609.139C606.11 230.125 603.654 232.581 603.654 235.611V246.583C603.654 249.613 606.11 252.069 609.139 252.069H877.951C880.981 252.069 883.437 249.613 883.437 246.583V235.611C883.437 232.581 880.981 230.125 877.951 230.125Z" fill="#C3C3D8"/>
<path d="M877.951 268.525H606.397C604.882 268.525 603.654 269.753 603.654 271.268V276.754C603.654 278.269 604.882 279.497 606.397 279.497H877.951C879.466 279.497 880.694 278.269 880.694 276.754V271.268C880.694 269.753 879.466 268.525 877.951 268.525Z" fill="#D6D6EA"/>
<path d="M814.862 290.471H606.397C604.882 290.471 603.654 291.699 603.654 293.214V298.7C603.654 300.215 604.882 301.443 606.397 301.443H814.862C816.377 301.443 817.605 300.215 817.605 298.7V293.214C817.605 291.699 816.377 290.471 814.862 290.471Z" fill="#D6D6EA"/>
<path d="M842.292 312.414H606.397C604.882 312.414 603.654 313.642 603.654 315.157V320.643C603.654 322.158 604.882 323.386 606.397 323.386H842.292C843.807 323.386 845.035 322.158 845.035 320.643V315.157C845.035 313.642 843.807 312.414 842.292 312.414Z" fill="#D6D6EA"/>
<path d="M905.383 372.76H455.535C452.505 372.76 450.049 375.216 450.049 378.246V512.651C450.049 515.681 452.505 518.137 455.535 518.137H905.383C908.412 518.137 910.869 515.681 910.869 512.651V378.246C910.869 375.216 908.412 372.76 905.383 372.76Z" fill="white"/>
<path d="M578.969 389.217H485.708C481.163 389.217 477.479 392.901 477.479 397.446V490.707C477.479 495.251 481.163 498.936 485.708 498.936H578.969C583.514 498.936 587.198 495.251 587.198 490.707V397.446C587.198 392.901 583.514 389.217 578.969 389.217Z" fill="#FFF8B9"/>
<path d="M877.951 397.445H609.139C606.11 397.445 603.654 399.901 603.654 402.931V413.903C603.654 416.933 606.11 419.389 609.139 419.389H877.951C880.981 419.389 883.437 416.933 883.437 413.903V402.931C883.437 399.901 880.981 397.445 877.951 397.445Z" fill="#C3C3D8"/>
<path d="M877.951 435.848H606.397C604.882 435.848 603.654 437.076 603.654 438.591V444.077C603.654 445.591 604.882 446.82 606.397 446.82H877.951C879.466 446.82 880.694 445.591 880.694 444.077V438.591C880.694 437.076 879.466 435.848 877.951 435.848Z" fill="#D6D6EA"/>
<path d="M814.862 457.791H606.397C604.882 457.791 603.654 459.019 603.654 460.534V466.02C603.654 467.535 604.882 468.763 606.397 468.763H814.862C816.377 468.763 817.605 467.535 817.605 466.02V460.534C817.605 459.019 816.377 457.791 814.862 457.791Z" fill="#D6D6EA"/>
<path d="M842.292 479.734H606.397C604.882 479.734 603.654 480.962 603.654 482.477V487.963C603.654 489.478 604.882 490.706 606.397 490.706H842.292C843.807 490.706 845.035 489.478 845.035 487.963V482.477C845.035 480.962 843.807 479.734 842.292 479.734Z" fill="#D6D6EA"/>
<path d="M905.383 540.08H455.535C452.505 540.08 450.049 542.536 450.049 545.566V679.972C450.049 683.001 452.505 685.458 455.535 685.458H905.383C908.412 685.458 910.869 683.001 910.869 679.972V545.566C910.869 542.536 908.412 540.08 905.383 540.08Z" fill="white"/>
<path d="M578.969 556.539H485.708C481.163 556.539 477.479 560.223 477.479 564.768V658.029C477.479 662.574 481.163 666.258 485.708 666.258H578.969C583.514 666.258 587.198 662.574 587.198 658.029V564.768C587.198 560.223 583.514 556.539 578.969 556.539Z" fill="#D2EFFC"/>
<path d="M877.951 564.768H609.139C606.11 564.768 603.654 567.224 603.654 570.254V581.225C603.654 584.255 606.11 586.711 609.139 586.711H877.951C880.981 586.711 883.437 584.255 883.437 581.225V570.254C883.437 567.224 880.981 564.768 877.951 564.768Z" fill="#C3C3D8"/>
<path d="M877.951 603.168H606.397C604.882 603.168 603.654 604.396 603.654 605.911V611.397C603.654 612.912 604.882 614.14 606.397 614.14H877.951C879.466 614.14 880.694 612.912 880.694 611.397V605.911C880.694 604.396 879.466 603.168 877.951 603.168Z" fill="#D6D6EA"/>
<path d="M814.862 625.113H606.397C604.882 625.113 603.654 626.341 603.654 627.856V633.342C603.654 634.857 604.882 636.085 606.397 636.085H814.862C816.377 636.085 817.605 634.857 817.605 633.342V627.856C817.605 626.341 816.377 625.113 814.862 625.113Z" fill="#D6D6EA"/>
<path d="M842.292 647.057H606.397C604.882 647.057 603.654 648.285 603.654 649.8V655.286C603.654 656.8 604.882 658.029 606.397 658.029H842.292C843.807 658.029 845.035 656.8 845.035 655.286V649.8C845.035 648.285 843.807 647.057 842.292 647.057Z" fill="#D6D6EA"/>
<mask id="mask0" mask-type="alpha" maskUnits="userSpaceOnUse" x="450" y="707" width="461" height="78">
<path d="M910.869 707.402H450.049V784.206H910.869V707.402Z" fill="#C4C4C4"/>
</mask>
<g mask="url(#mask0)">
<path d="M905.383 707.402H455.535C452.505 707.402 450.049 709.858 450.049 712.888V847.294C450.049 850.324 452.505 852.78 455.535 852.78H905.383C908.412 852.78 910.869 850.324 910.869 847.294V712.888C910.869 709.858 908.412 707.402 905.383 707.402Z" fill="white"/>
<path d="M578.969 723.859H485.708C481.163 723.859 477.479 727.544 477.479 732.088V825.349C477.479 829.894 481.163 833.578 485.708 833.578H578.969C583.514 833.578 587.198 829.894 587.198 825.349V732.088C587.198 727.544 583.514 723.859 578.969 723.859Z" fill="#FFB9D2"/>
<path d="M877.953 732.09H609.142C606.112 732.09 603.656 734.546 603.656 737.576V748.548C603.656 751.577 606.112 754.034 609.142 754.034H877.953C880.983 754.034 883.439 751.577 883.439 748.548V737.576C883.439 734.546 880.983 732.09 877.953 732.09Z" fill="#C3C3D8"/>
<path d="M877.953 770.49H606.399C604.884 770.49 603.656 771.718 603.656 773.233V778.719C603.656 780.234 604.884 781.462 606.399 781.462H877.953C879.468 781.462 880.696 780.234 880.696 778.719V773.233C880.696 771.718 879.468 770.49 877.953 770.49Z" fill="#D6D6EA"/>
</g>
<defs>
<filter id="filter0_d" x="0.171875" y="0.463779" width="1327.66" height="853.121" filterUnits="userSpaceOnUse" color-interpolation-filters="sRGB">
<feFlood flood-opacity="0" result="BackgroundImageFix"/>
<feColorMatrix in="SourceAlpha" type="matrix" values="0 0 0 0 0 0 0 0 0 0 0 0 0 0 0 0 0 0 127 0"/>
<feOffset dy="3.52042"/>
<feGaussianBlur stdDeviation="5.5"/>
<feColorMatrix type="matrix" values="0 0 0 0 0.14788 0 0 0 0 0.376938 0 0 0 0 0.720524 0 0 0 0.16 0"/>
<feBlend mode="normal" in2="BackgroundImageFix" result="effect1_dropShadow"/>
<feBlend mode="normal" in="SourceGraphic" in2="effect1_dropShadow" result="shape"/>
</filter>
<filter id="filter1_d" x="445.049" y="202.438" width="470.82" height="155.377" filterUnits="userSpaceOnUse" color-interpolation-filters="sRGB">
<feFlood flood-opacity="0" result="BackgroundImageFix"/>
<feColorMatrix in="SourceAlpha" type="matrix" values="0 0 0 0 0 0 0 0 0 0 0 0 0 0 0 0 0 0 127 0"/>
<feOffset dy="2"/>
<feGaussianBlur stdDeviation="2.5"/>
<feColorMatrix type="matrix" values="0 0 0 0 0.251559 0 0 0 0 0.306331 0 0 0 0 0.593886 0 0 0 0.1 0"/>
<feBlend mode="normal" in2="BackgroundImageFix" result="effect1_dropShadow"/>
<feBlend mode="normal" in="SourceGraphic" in2="effect1_dropShadow" result="shape"/>
</filter>
</defs>
</svg>
