<?xml version="1.0" encoding="UTF-8" standalone="no"?>
<!DOCTYPE svg PUBLIC "-//W3C//DTD SVG 1.1//EN" "http://www.w3.org/Graphics/SVG/1.1/DTD/svg11.dtd">
<svg width="100%" height="100%" viewBox="0 0 588 180" version="1.1" xmlns="http://www.w3.org/2000/svg" xmlns:xlink="http://www.w3.org/1999/xlink" xml:space="preserve" xmlns:serif="http://www.serif.com/" style="fill-rule:evenodd;clip-rule:evenodd;stroke-linejoin:round;stroke-miterlimit:2;">
    <g>
        <path d="M102,0C93,0 96.8,13.4 97.5,17.8C97.5,18 98.2,48.1 98.4,55C99.8,54.6 101.1,54.3 102.5,54L105.2,53.3C105.3,46.6 106,17.9 106,17.7C106.6,13.1 111.3,-0 102,-0M99.5,102C100.5,101.7 101.5,101.3 102.4,101.1C103.1,100.9 103.7,100.7 104.4,100.5C104.4,98.6 105,71.8 105.1,67C103,67.5 100.9,68.1 98.9,68.8C99,72.4 99.5,99.1 99.5,102M103,112C102.7,112.1 101.8,112.5 101.2,112.7C100.6,112.9 99.9,113.2 99.9,113.4C99.9,113.4 100.5,144.2 100.5,144.8C100.5,151.1 103.7,151.2 103.7,144.8C103.7,144.4 104.4,111.5 104.4,111.5C104.4,111.5 103.5,111.8 103,112M95.6,26.2C93.2,27 90.8,27.9 88.5,29.1C86,29.9 82.4,30.1 78.7,34.1C77.5,35.5 76.4,37 75.3,38.5C74.2,40.1 74.1,42.7 73.3,44C72.1,46 72.4,47.2 72.4,47.2C72.2,48.1 71.7,49 71.1,49.7C69.9,51.1 68.1,51.8 66.3,51.5C68,52.3 70.3,51.2 70.3,51.2C69.9,52.3 69.6,53.4 69.4,54.5C71.3,50.2 73,48.7 73.6,48.2C74.4,48.4 76.1,48.3 79.2,46.5C82.7,44.5 88,41.2 89.5,39.1C91.1,37 93.2,35.3 95.7,34.4C95.7,31.4 95.6,28.6 95.6,26.2M80.8,39.5L79,39.9L81.2,36.3L83.7,36.4L80.8,39.5M91.6,113C91.6,117 94.5,119.1 97.4,120.8C97.4,120.1 97.3,114 97.3,113.9C97.4,112.7 98.5,111.9 99.5,111.5C101,110.8 102.6,110.2 104.2,109.7C105.1,109.4 105.8,109.1 106.6,108.9C112.5,107.1 119.3,104.9 119.3,97.7C119.3,90.5 113.5,87.6 107.1,85.4C107,87.7 107,91 106.9,93.3C109.6,94.3 111.4,95.6 111.4,97.7C111.4,100.3 108.7,101.7 106.7,102.5C105.9,102.8 104.7,103.2 104.3,103.3C102.7,103.8 101.1,104.3 99.5,104.9C98.7,105.2 97.9,105.5 97.1,105.9C94.5,107.3 91.6,109.4 91.6,113M130,43.7C130,36.4 124.7,28.4 111.8,25.6C110.5,25.4 109.2,25.2 107.9,25.1C107.9,26.2 107.8,28.7 107.8,28.7C107.8,29.5 107.7,32.4 107.7,33C108.5,33.1 109.4,33.2 110.2,33.3C117.7,35.1 120.4,39.4 120.4,43.6C120.4,50.5 114.5,53.1 107.3,55.1L104.9,55.7C102.7,56.2 100.4,56.8 98.2,57.4C97.4,57.6 96.6,57.8 95.8,58.1C87.8,60.5 80.9,64.4 80.9,74.3C80.9,84.2 88.8,87.8 96.5,90.2C96.5,87.4 96.4,84.5 96.3,81.7C92.8,80.1 90.5,78 90.5,74.5C90.5,71 92.7,69 96,67.5C96.7,67.2 97.5,66.9 98.4,66.6C100.3,65.9 102.5,65.4 104.7,64.8L107.1,64.2C117.9,61.6 130.1,58.2 130,43.7M106,125C109.6,126.8 113,129.4 114.4,134.2C115,126.2 110.5,122.8 106.1,120.4L106,125M166,33C169.9,37.7 176.7,40.4 180.7,45.1C177.8,31.3 167.2,20 154.6,17.3C160.8,21.9 162.1,28.3 166,33M15,68C23.7,49.1 36.6,53.1 42.1,35.2C38.9,40.6 24.8,42.9 18.3,57C21.7,48.6 20,35.8 25.6,28.8C8.7,41.4 15.9,61.6 15,68M30.6,113.2C32.2,120.5 27.6,131.2 34.9,141.3C27.4,132.9 11.4,130.7 4.9,117.9C13,149.2 34.2,142.8 43.7,149.6C35.9,138.3 42.3,130.8 30.6,113.2M28.2,132.9C23.5,115.4 31.8,109.3 25.5,92.5C24.9,102 18.5,106.6 22.8,123.9C15.3,109.2 3.7,103.7 0.3,93.7C0.5,121.2 22.6,125.3 28.2,132.9M62.1,162.2C55.6,153.2 60,148.1 41.8,131.8C45.7,137.8 41.7,145.3 54,156.9C42,149.8 25.3,152.8 17.3,143.3C31.1,169.7 55.3,158.9 62.1,162.2M150.6,156.9C162.9,145.2 158.9,137.7 162.8,131.8C144.5,148.1 149,153.2 142.4,162.2C149.3,158.9 173.5,169.7 187.2,143.3C179.3,152.9 162.6,149.8 150.6,156.9M169.7,141.3C177,131.2 172.4,120.6 173.9,113.2C162.2,130.8 168.6,138.3 160.8,149.6C170.4,142.8 191.5,149.2 199.6,117.9C193.1,130.7 177.2,132.9 169.7,141.3M140.5,163.5C134,161.8 127.3,160.7 120.5,160.5C114.3,160.4 108.1,161.4 102.3,163.6C96.5,161.4 90.3,160.4 84.1,160.5C77.3,160.7 70.6,161.8 64.1,163.5C53.1,166.4 43.6,168.7 35.3,164.5C43.2,171.5 52.5,174.1 65.9,172.6C77,171.4 86,165.8 96.5,165.9L96.9,165.9C90.3,169.2 84.4,173.8 79.6,179.4L84.7,180.1C84.7,180.1 90,169.4 102.3,166.6C114.6,169.4 119.9,180.1 119.9,180.1L125,179.4C120.2,173.8 114.3,169.2 107.7,165.9L108.1,165.9C118.6,165.8 127.6,171.4 138.7,172.6C152.1,174 161.3,171.5 169.3,164.5C161,168.7 151.5,166.4 140.5,163.5M26.5,73.5C22,82.2 14.9,84.2 15.7,102.1C11.9,86.2 2.8,80.2 2.9,70.1C-3.4,96.7 13.4,99.8 17.8,111C17.1,95 27.3,91.8 26.5,73.5M32.8,53C31.2,55.2 30.1,56.2 25.9,59.6C19.6,64.6 15.2,71.7 13.7,79.6C14.1,69.8 8.1,55.8 12.1,45.6C-3.4,67.5 13,80.6 13.6,88.6C17.5,73.3 26.8,73.2 32.8,53M190.8,79.6C189.2,71.7 184.9,64.6 178.6,59.6C174.4,56.1 173.3,55.2 171.7,53C177.7,73.2 187,73.3 191,88.6C191.6,80.7 208,67.6 192.5,45.6C196.5,55.8 190.5,69.8 190.8,79.6M204,93.7C200.6,103.8 189,109.2 181.5,123.9C185.8,106.6 179.4,102 178.8,92.5C172.5,109.3 180.8,115.4 176.1,132.9C181.7,125.3 203.8,121.2 204,93.7M178,73.5C177.1,91.8 187.4,95 186.7,111C191,99.9 207.9,96.7 201.6,70.1C201.7,80.3 192.6,86.2 188.8,102.2C189.6,84.1 182.6,82.2 178,73.5M38,33C41.9,28.3 43.2,21.9 49.4,17.3C36.7,20 26.1,31.2 23.2,45C27.2,40.3 34.1,37.6 38,33M162,35C167.5,53 180.4,49 189.1,67.8C188.2,61.5 195.4,41.2 178.5,28.8C184.2,35.7 182.5,48.6 185.8,57C179.2,42.9 165.1,40.6 162,35M118,45.3C114.7,43.9 111.2,43 107.7,42.5L107.7,44.8C111,45.3 114.2,46.2 117.2,47.4C117.6,46.7 117.9,46 118,45.3M115.4,23L116.1,22.4L114.8,21.8L111.3,21.7L110.4,22.3L108.4,22.1L108.4,22.6C109.7,22.7 111,22.8 112,23L113.7,22.9L115.4,23ZM108.8,97.6C108.8,97 108,96.4 106.9,95.9L106.7,95.9C106.7,96.4 106.6,98.7 106.6,99.9C107.9,99.2 108.8,98.6 108.8,97.6M68.7,53.7C68.8,53.3 68.9,52.8 69,52.4C68.5,52.5 68.1,52.6 67.6,52.5L68.7,53.7ZM52.6,37.6L60.8,45.8C50.9,56.1 45.3,69.9 45.1,84.2L33.5,84.2C33.7,66.7 40.5,50.1 52.6,37.6M47.6,101.4L46.9,101.3L46.2,100.6L42.9,100.3L43.9,101.7L40.9,101.1L41.7,100.4L41,99.7L38.8,100.6L38,102L38.3,105.3L40.8,111.3L42,113.2L42.7,113.4L40.8,109.8L40.4,108L40.8,107.6L40.5,106.6L41.6,106.8L43.4,109.4L43.8,109.6L43.8,107.7L44.5,108.1L44.7,109.1L46.5,109.6L47.3,109L47.6,109.2L47.6,110.6L48.4,111.6L49.4,111.8L51.6,115.4L52.9,115.8L53.3,114.1C55.6,117.8 58.2,121.3 61.3,124.4L53.1,132.6C40.9,120.3 33.9,103.8 33.5,86.5L45.1,86.5C45.2,91.5 46.1,96.6 47.6,101.4M59,86.4C59,87.5 59.1,88.6 59.3,89.8L57.9,90.1L57.6,91.5L54.6,95.3L54.7,100.5L51.7,101.5L50,101.5C48.4,96.6 47.6,91.6 47.4,86.4L59,86.4ZM61.6,119.1L64.2,120.6L64.7,121L62.8,122.9C61.9,122 61.1,121.1 60.3,120.1L61.6,119.1ZM72.2,57.2L80.4,65.4C78.7,67.3 77.2,69.4 76.1,71.7L75.5,71.7L74.3,72L73.9,72L72.7,73.1L74.3,72.9L75.7,72.6L75.4,73L74.2,73.8L73.6,73.8L71.8,75.2L70.1,75L67.6,79.7L68.1,80.6L66.7,82.2L66.5,84.2L61.3,84.2C61.4,74.1 65.3,64.5 72.2,57.2M80.6,91.1L81.2,90.8L82.7,91.9L82,92.4L83.7,93.5L83.6,92.3L84.5,90.8L85.5,91.8L86.5,93.2L84.7,93.7L85.5,95.3L86.7,94.6L86.5,94.1L87.4,93.5L87.9,91C88.6,92.5 89.5,93.9 90.6,95.1L82.4,103.3C78.4,99.1 75.9,93.7 75.2,87.9L76.9,89.7L78.5,89.7L80.6,91.1ZM68.8,82.4L69,80.1L70.4,79.3L72.9,79.7L73.3,80.1C73.1,81.4 73,82.8 72.9,84.1L70.1,84.1L68.8,82.4ZM65,90.4L63.9,92.1L62,92.1L61.9,92C61.6,90.2 61.4,88.3 61.3,86.5L64.8,86.5L64,89.3L65,90.4ZM72.7,113C71.9,112.1 71,111.2 70.3,110.3L70.7,107.4L69.5,104.6L69.2,100.2L67.8,97.5L68.1,95.8L66.4,92.6L65,91.9L65.6,90.2L65,88.9L65.6,87.4L67.2,87.4L67.8,86.5L70.5,86.5L70.9,87.3L70.3,90L70,90.5L71,92.7L70.3,93.1L69.8,92.5L69.6,92.7L70.1,94L70.9,95.5L71.3,95.5L71.5,94.1L71.1,93.6L71.1,92.7L71,90.8L71.6,87.4L71,86.5L72.9,86.5C73.3,93.4 76.1,99.9 80.9,104.9L72.7,113ZM142.5,124.2C152.4,114 158.1,100.5 158.4,86.4L170,86.4C169.6,103.6 162.7,120.1 150.6,132.4L142.5,124.2ZM139.3,121L140.2,120L139.3,115.5L138.7,115.3L139.1,114.5L137.2,113.9L136.8,115.5L136.6,117.5L136.2,117.9L132.7,114.4C140,106.8 144.2,96.9 144.6,86.4L156.2,86.4C155.8,100 150.4,112.9 140.9,122.6L139.3,121ZM129.1,131.9L130.2,129.6L129.8,128.6L131.4,127.2L131.4,126.4L130,125.5L131.1,123.2L132.8,121L131.1,119.2L129.8,119.2L129,117.9C129.7,117.3 130.4,116.7 131,116.1L139.2,124.3C136.2,127.2 132.8,129.8 129.1,131.9M127.5,109.3L126.4,108.2L127.2,107.1L128.3,104.9L127.9,104.3L128.6,102.7L128.5,101.2L128.1,99.7L127.1,99.4L126.7,100.2L126.1,100C127,98.7 127.8,97.2 128.5,95.8L129.5,95.4L130.1,94.6L130.4,94.9L131.1,94.1L130.5,93.4L131,93.3L131.9,93.7L133.7,93.7L134.8,93.1L137.6,92.3L137.1,91.4L136.9,90.3L138.4,91L139,90.7L138.7,89.5L136.8,90.2L134.8,89.8L133.2,86.6L142.1,86.6C141.7,96.5 137.7,105.9 130.9,113L129.7,111.8L130.2,110.2L129.3,106.6L127.5,109.3ZM123.3,65.7L131.5,57.5C133.4,59.6 135.1,61.9 136.6,64.3L135.6,64.6L135.7,66.4L138.7,68.3C139.5,70 140.1,71.7 140.6,73.5L140.1,74.3L139,75.1L138.7,76.8L137.9,77.2L137.3,78L136.7,77.7L135.6,77.7L136.2,76.8L136.7,74.5L137.5,74L135.3,71.9L133.7,72.5L133.3,74.1L132.3,75.2L131.2,74.3L130.8,73.3L131.4,72.9L131.7,73.5L132.2,73.3L132,72.3L131.3,72.3L131.3,72.7L130.8,72.8L128.3,69.8L127.4,69.1L127.7,68.8L128.5,68.5L127.7,68.2C127.7,68.2 126.8,68.4 126.7,68.4L127.2,69.1L125.9,69.1C125.1,67.8 124.3,66.7 123.3,65.7M124.6,110.4L122.1,109.7L121.3,110L119.9,108.9L118.6,108.4C119.3,107.9 119.9,107.4 120.5,106.9L122.6,108.4L124.2,109.2L125,110L124.6,110.4ZM120.2,71.9L121.2,71.7L121.2,71.5L120.2,70.8L120.5,68.6L121.7,67.3C122.5,68.2 123.2,69.1 123.9,70.1L123.5,71.4L122.4,70.6L121.5,70.8L121.9,71.6L122.3,71.6L121.8,72.8L121.5,72.3L120.2,71.9ZM134.1,79.9L136.2,78.8L138.3,78.5L138.8,77.5L140,76.8L140.5,75.8L140.9,74.1C141.1,74.7 141.2,75.3 141.4,75.9L140.3,79.2L140.3,80.3L141.7,78C142,80 142.2,82.1 142.3,84.1L132.1,84.1L131.9,83.2L133.1,82.3L133.3,81.7L133.8,81.3L135.2,81.1L135.3,80.5L134.1,79.9ZM136.4,52.7L139.2,52.8L139.9,53.6L139.6,54.8L143.5,57.2L144.3,57.1L149.2,62.8L151.2,62.1C154.4,69 156.1,76.6 156.2,84.2L144.6,84.2C144.6,81.2 144.2,78.3 143.5,75.4L144,74.7L144.7,71L144.2,67.1L142.8,62.6L139.6,57.9L140.4,58.3L140.8,57.9L138.2,56.1L138,56.7L140.6,60.4L142.1,63.4L143.1,66.4L143.4,68.4L143.9,71.8L142.9,71.9C142.9,71.9 141.8,69.8 141.4,68.9L141.9,68.1L140.9,66.7L140.9,65.4L140.2,64.5L139.3,64.6C139,64 138.7,63.4 138.3,62.9L138.9,63.2L139.1,63L138.8,62.3L139.6,61.9L139.3,61.5L138.2,61.9L138.6,60.1L137.9,59.7L137.3,61.1C136,59.2 134.6,57.4 133.1,55.7L136.4,52.7ZM151.2,37.8C163.2,50.3 169.9,66.9 170.1,84.2L158.5,84.2C158.4,75.6 156.4,67.1 152.5,59.4L152.6,59.2L153.4,59.6L153.6,59L151.5,55.4L149,52L146.1,49.6C145.1,48.4 144.1,47.2 143,46L151.2,37.8ZM101.8,155.4C140.8,155.4 172.4,123.7 172.3,84.7C172.3,48.5 144.9,18.2 108.9,14.5L108.8,14.9C108.7,15.6 108.5,16.2 108.4,16.8C123.9,18.3 138.4,25.1 149.5,36L141.7,43.8L142,42.4L141,41.9L139.7,42L140,41.1L139.1,37.9L137.2,35.8L131.1,32.6L130.6,33.2L129.5,33.5C131.6,36.5 132.7,40.1 132.7,43.7L132.7,45.1L135.7,48.9L134.3,49.2L135.2,50.6L132.5,53.3L131.4,51.3C130.9,52.7 130.2,54.1 129.4,55.3L130,55.8L121.7,64C121.2,63.5 120.7,63.1 120.2,62.6C119.4,63 118.6,63.3 117.8,63.6L118.5,64.1L118.1,64.5L117.1,65L116.7,66L116.1,65.4L114.4,66L114.9,66.8L116.1,66.5L116.9,66.6L117,66.2L117.6,65.9L117.8,65.6L118.9,65.3L119.7,65.3L120.2,65.7L117,69L116.8,68.7L113.4,69.3L112.6,70.1L111.9,70.2L114,68.2L113.2,67.8L111.2,70.4L111.8,70.3L111.8,71.3L112.5,71.6L112.6,72.6L111.4,72.4L110.2,72.6L107.2,71.1C107.2,71.1 107,79.1 107,83.1C114,85.5 121.5,88.9 121.5,97.9C121.6,101.7 119.6,105.3 116.4,107.4L116.2,107.5L116,107.7C113.2,109.6 109.5,110.6 106.3,111.6L106.2,117.9C111.3,120.4 117.4,124.1 116.8,134.5C116.7,137.1 115.7,137.8 114.9,138C111.9,138.7 108.8,139.2 105.8,139.4L105.8,141.7C119,140.8 131.4,135.3 141,126.2L149.2,134.4C122.9,159.8 81.2,159.8 54.8,134.6L63,126.4C72.5,135.3 84.8,140.7 97.8,141.7L97.8,139.4C85.4,138.4 73.8,133.3 64.8,124.7L66.9,122.5L69.9,122.8L71.5,121.1L75.7,121.3L76.3,119.8L76.1,119.2C82.3,123.9 89.7,126.9 97.5,127.7L97.5,125.4C88.9,124.4 80.9,120.8 74.5,114.9L82.7,106.7C84.7,108.5 86.9,110 89.4,111.2C89.6,110.4 89.8,109.7 90.2,109C88.1,107.9 86.1,106.6 84.4,105.1L92.6,96.9C93.9,97.9 95.4,98.8 96.9,99.3L96.9,96.8C95.9,96.4 95,95.8 94.2,95.2L96.5,92.9C95.7,92.7 94.9,92.4 94.1,92.1L92.5,93.7C91.7,92.8 91,91.8 90.5,90.8C89.1,90.2 87.7,89.5 86.4,88.6C81.6,85.7 78.7,80.4 78.8,74.7C78.7,70.9 79.8,67.1 82.1,64.1L73.9,55.9C79.9,50.1 87.6,46.4 95.8,45.1L95.8,42.8C87,44.1 78.7,48.1 72.3,54.3L70.9,52.9C70.6,53.4 70.2,54.1 69.8,55L70.7,55.9C63.4,63.6 59.3,73.8 59.1,84.4L47.4,84.4C47.6,70.7 52.9,57.6 62.4,47.6L66.1,51.3L66.6,51.3C67.3,51.2 68.1,51 68.7,50.7L64,46C66.5,43.6 69.2,41.4 72.1,39.5C72.3,38.9 72.4,38.3 72.7,37.8C73.2,37 73.8,36.2 74.5,35.4C70.1,37.8 66.1,40.8 62.5,44.3L54.3,36.1C65.3,25.4 79.6,18.7 95,17.1C95,16.8 94.9,16.6 94.9,16.6C94.8,16 94.7,15.5 94.6,14.8C55.7,18.8 27.6,53.5 31.7,92.3C35.5,128.2 65.7,155.5 101.8,155.4M136.5,33.4L135.8,32.3L134.3,31.5L133.1,32.4L134.6,33.2L136.3,34.4L136.5,33.4ZM129.5,66.2L129.6,67.1L131.6,66.5L132.2,65.3L130.8,63.5L131.5,62.4L133.4,63.7L133.7,63.4L133.3,63.1L132.9,62.3L133.7,61.9L132.9,60.9L131.1,61.8L130.5,62.9L130.1,63.9L130.9,65.2L130.6,65.8L129.5,66.2ZM45.7,118.2L45.8,117.7L44.8,115.4L43.6,114.9L45.7,118.2ZM93,74.6C93,76.6 94.2,77.9 96.3,79.1L96.3,78.2L95,76.8L95.7,75.5L96.3,75.3C96.2,73 96.2,70.5 96.2,70.1L96.1,70.1C94.1,71.3 93.1,72.7 93,74.6" style="fill:white;fill-rule:nonzero;"/>
        <g>
            <path d="M250,42.7L249.9,42.7L241.9,84.5L230.9,84.5L220.5,33.5L229.3,33.5L236.5,72.8L236.6,72.8L244.3,33.5L255.7,33.5L263.3,72.8L263.4,72.8L270.9,33.5L279.4,33.5L268.9,84.5L257.7,84.5L250,42.7Z" style="fill:white;fill-rule:nonzero;"/>
            <path d="M293,46.2C300.7,46.2 309.5,50.2 309.5,65.5C309.5,81.3 300.7,84.9 293,84.9C285.3,84.9 276.4,81.2 276.4,65.5C276.5,50.2 285.4,46.2 293,46.2ZM293,78.6C298.8,78.6 300.2,71.9 300.2,65.6C300.2,59.3 298.9,52.7 293,52.7C287.1,52.7 285.8,59.3 285.8,65.6C285.8,71.9 287.2,78.6 293,78.6Z" style="fill:white;fill-rule:nonzero;"/>
            <path d="M314,53C314,50.9 313.9,48.9 313.7,46.8L321.9,46.8C322,49.1 322.2,51.4 322.2,53.7L322.3,53.7C323.4,50.8 326.2,46.3 331.9,46.3C332.4,46.3 332.9,46.4 333.4,46.5L333.4,55C332.6,54.8 331.7,54.6 330.9,54.6C327.2,54.6 323.1,56.9 323.1,63.9L323.1,84.5L314.1,84.5L314,53Z" style="fill:white;fill-rule:nonzero;"/>
            <rect x="337" y="29.7" width="9.1" height="54.7" style="fill:white;fill-rule:nonzero;"/>
            <path d="M383,29.7L383,78C383,80.1 383.1,82.3 383.3,84.4L374.8,84.4C374.6,82.5 374.5,80.5 374.5,78.6L374.3,78.6C372.8,81.8 370.1,85 364.3,85C355,85 351.1,76.1 351.1,65.7C351.1,53.4 356,46.3 364.1,46.3C368.3,46.1 372.1,48.5 373.8,52.3L373.9,52.3L373.9,29.7L383,29.7ZM366.7,78.3C372,78.3 373.8,72.5 373.8,65.5C373.8,58.2 371.8,52.9 366.8,52.9C361.8,52.9 360,57.8 360,65.3C360.1,74 361.5,78.3 366.7,78.3Z" style="fill:white;fill-rule:nonzero;"/>
        </g>
        <g>
            <path d="M410,33.5L419.4,33.5L419.4,54.2L434.5,54.2L434.5,33.5L443.8,33.5L443.8,84.5L434.5,84.5L434.5,61.9L419.4,61.9L419.4,84.4L410,84.4L410,33.5Z" style="fill:white;fill-rule:nonzero;"/>
            <path d="M477,82.6C473.5,84.2 469.6,85 465.8,85C453.7,85 448.4,76.3 448.4,66.2C448.4,55 454.3,46.3 463.9,46.3C472,46.3 478.9,51 478.9,66.4L478.9,68.2L457.2,68.2C457.2,74.6 459.8,78.5 466.8,78.5C472.3,78.5 475,76.8 476.7,75.6L477,82.6ZM470.1,62.4C470.1,55.8 467.9,52.4 463.8,52.4C459,52.4 457.1,57.4 457.1,62.4L470.1,62.4Z" style="fill:white;fill-rule:nonzero;"/>
            <path d="M484,49C487.7,47.2 491.8,46.2 495.9,46.2C507.6,46.2 510.3,51.9 510.3,61.3L510.3,77.7C510.3,79.9 510.5,82.1 510.8,84.3L502.6,84.3C502.2,82.6 502,80.9 502.1,79.2L502,79.2C499.7,82.3 496.9,84.9 491.5,84.9C485.7,84.9 480.3,80.9 480.3,73.9C480.3,63.7 488.6,61.1 500.1,61.1L501.9,61.1L501.9,59.7C501.9,56 500.1,52.5 494.9,52.5C491.2,52.6 487.6,53.9 484.6,56.2L484,49ZM501.9,66L501,66C493.3,66 488.7,67.6 488.7,73.1C488.5,76.1 490.8,78.7 493.8,78.9L494.5,78.9C499.9,78.9 501.9,74.9 501.9,68.2L501.9,66Z" style="fill:white;fill-rule:nonzero;"/>
            <rect x="519" y="29.7" width="9" height="54.7" style="fill:white;fill-rule:nonzero;"/>
            <path d="M538,39.1L547,36.3L547,46.8L554.5,46.8L554.5,53.4L547,53.4L547,73C547,77 548.5,78.2 551.1,78.2C552.3,78.2 553.5,77.9 554.5,77.4L554.5,83.8C552.6,84.6 550.5,85 548.4,85C541.7,85 537.9,81.9 537.9,74L537.9,53.5L531.9,53.5L531.9,46.9L537.9,46.9L537.9,39.1L538,39.1Z" style="fill:white;fill-rule:nonzero;"/>
            <path d="M558,29.7L567,29.7L567,51.7L567.2,51.7C568.8,49.4 570.9,46.3 576.5,46.3C585,46.3 587.6,52.6 587.6,60.2L587.6,84.4L578.6,84.4L578.6,61.9C578.6,56.1 577.1,53.7 573.4,53.7C568.7,53.7 567,57.7 567,62.5L567,84.4L558,84.4L558,29.7Z" style="fill:white;fill-rule:nonzero;"/>
        </g>
        <g>
            <path d="M241,98C251.6,98 261.3,105.9 261.3,124.2C261.3,142.5 251.6,150.4 241,150.4C230.4,150.4 220.7,142.5 220.7,124.2C220.7,105.9 230.4,98 241,98ZM241,143.3C246.9,143.3 251.7,138.3 251.7,124.2C251.7,110.1 246.9,105.2 241,105.2C235.1,105.2 230.3,110.2 230.3,124.2C230.3,138.2 235.1,143.3 241,143.3Z" style="fill:white;fill-rule:nonzero;"/>
            <path d="M265,118C265,115.9 264.9,113.9 264.7,111.8L272.9,111.8C273,114.1 273.2,116.4 273.2,118.7L273.3,118.7C274.4,115.8 277.3,111.3 282.9,111.3C283.4,111.3 283.9,111.4 284.4,111.5L284.4,120C283.6,119.8 282.7,119.6 281.8,119.6C278.1,119.6 274,121.9 274,128.9L274,149.5L265,149.5L265,118Z" style="fill:white;fill-rule:nonzero;"/>
            <path d="M289,156C292.4,158 296.2,159.1 300.1,159.2C308.6,159.2 310,153.3 310,147.4L310,143.8L309.9,143.8C308.4,146.7 305.9,150.2 300,150.2C294.8,150.2 286.9,146.7 286.9,131.5C286.9,121.1 290.6,112 300.5,112C306,112 308.5,115.1 310.4,118.4L310.7,118.4C310.7,116.4 310.9,114.5 311,112.6L319.2,112.6C319.1,114.6 318.9,116.5 318.9,118.5L318.9,146.2C318.9,158 315.3,166.3 301.5,166.3C297.1,166.3 292.7,165.5 288.6,164L289,156ZM302.1,143.5C307.8,143.5 310.1,139.4 310.1,130.9C310.1,123 307.1,118.8 302.8,118.9C298,119 296.2,123.4 296.2,131C296.2,139.8 299,143.5 302.1,143.5Z" style="fill:white;fill-rule:nonzero;"/>
            <path d="M327,114C330.7,112.1 334.8,111.2 338.9,111.2C350.6,111.2 353.3,116.9 353.3,126.3L353.3,142.7C353.3,144.9 353.5,147.1 353.8,149.3L345.6,149.3C345.2,147.6 345,145.9 345.1,144.2L345,144.2C342.7,147.3 339.9,149.9 334.5,149.9C328.7,149.9 323.3,145.9 323.3,138.9C323.3,128.7 331.6,126.1 343.1,126.1L344.9,126.1L344.9,124.7C344.9,121 343.1,117.5 337.9,117.5C334.2,117.6 330.6,118.9 327.6,121.2L327,114ZM344.8,131L344,131C336.3,131 331.7,132.6 331.7,138.1C331.5,141.1 333.8,143.7 336.8,143.9L337.5,143.9C342.9,143.9 344.9,139.9 344.9,133.2L344.8,131Z" style="fill:white;fill-rule:nonzero;"/>
            <path d="M361,118C361,115.9 360.9,113.9 360.7,111.8L369.2,111.8C369.3,113.7 369.5,115.7 369.5,117.6L369.6,117.6C370.9,115.3 373.5,111.3 379.6,111.3C388.1,111.3 390.7,117.6 390.7,125.2L390.7,149.4L381.6,149.4L381.6,126.8C381.6,121 380.1,118.6 376.4,118.6C371.7,118.6 370,122.6 370,127.4L370,149.3L361,149.3L361,118Z" style="fill:white;fill-rule:nonzero;"/>
            <path d="M397,96.1L406.4,96.1L406.4,105L397,105L397,96.1ZM397.2,112.1L406.2,112.1L406.2,149.7L397.2,149.7L397.2,112.1Z" style="fill:white;fill-rule:nonzero;"/>
            <path d="M414,142L430.1,119.1L414.5,119.1L414.5,112.2L439.1,112.2L439.1,119.9L423.3,142.9L439.6,142.9L439.6,149.8L413.9,149.8L413.9,142L414,142Z" style="fill:white;fill-rule:nonzero;"/>
            <path d="M446,114C449.7,112.1 453.8,111.2 457.9,111.2C469.6,111.2 472.3,116.9 472.3,126.3L472.3,142.7C472.3,144.9 472.5,147.1 472.8,149.3L464.6,149.3C464.2,147.6 464,145.9 464.1,144.2L464,144.2C461.7,147.3 458.9,149.9 453.5,149.9C447.7,149.9 442.3,145.9 442.3,138.9C442.3,128.7 450.6,126.1 462.1,126.1L463.9,126.1L463.9,124.7C463.9,121 462.1,117.5 456.9,117.5C453.2,117.6 449.6,118.9 446.6,121.2L446,114ZM463.9,131L463,131C455.3,131 450.7,132.6 450.7,138.1C450.5,141.1 452.8,143.7 455.8,143.9L456.5,143.9C461.9,143.9 463.9,139.9 463.9,133.2L463.9,131Z" style="fill:white;fill-rule:nonzero;"/>
            <path d="M482,104L491,101.2L491,111.7L498.5,111.7L498.5,118.3L491,118.3L491,137.8C491,141.8 492.5,143 495.1,143C496.3,143 497.5,142.8 498.5,142.2L498.5,148.6C496.6,149.5 494.5,149.9 492.4,149.8C485.7,149.8 481.9,146.7 481.9,138.9L481.9,118.3L475.9,118.3L475.9,111.7L481.9,111.7L482,104Z" style="fill:white;fill-rule:nonzero;"/>
            <path d="M504,96.1L513.3,96.1L513.3,105L504,105L504,96.1ZM504.2,112.1L513.3,112.1L513.3,149.7L504.3,149.7L504.2,112.1Z" style="fill:white;fill-rule:nonzero;"/>
            <path d="M535,112C542.7,112 551.5,116 551.5,131.3C551.5,147.1 542.7,150.7 535,150.7C527.3,150.7 518.4,147.1 518.4,131.3C518.5,116.1 527.4,112 535,112ZM535,144.4C540.8,144.4 542.2,137.7 542.2,131.4C542.2,125.1 540.9,118.5 535,118.5C529.1,118.5 527.8,125.1 527.8,131.4C527.8,137.7 529.2,144.4 535,144.4Z" style="fill:white;fill-rule:nonzero;"/>
            <path d="M559,118C559,115.9 558.9,113.9 558.7,111.8L567.2,111.8C567.3,113.7 567.5,115.7 567.5,117.6L567.6,117.6C568.9,115.3 571.5,111.3 577.6,111.3C586.1,111.3 588.7,117.6 588.7,125.2L588.7,149.4L579.7,149.4L579.7,126.8C579.7,121 578.2,118.6 574.5,118.6C569.8,118.6 568.1,122.6 568.1,127.4L568.1,149.3L559.1,149.3L559,118Z" style="fill:white;fill-rule:nonzero;"/>
        </g>
    </g>
</svg>
